<svg id="Logos" xmlns="http://www.w3.org/2000/svg" viewBox="0 0 844.78 258.28"><defs><style>.cls-1{fill:#28faa9;}.cls-2{fill:#00005a;}</style></defs><title>20191122_collectAI_Logo_RZ</title><path class="cls-1" d="M662.93,73.11l-.18-.5H640.46L601,183.81l-.36,1h23.59l6.67-19.26H672.3L679,184.81h23.58Zm1.88,70.77H638.4l13.2-38.2Z"/><rect class="cls-1" x="709.29" y="72.61" width="23.29" height="112.19"/><path class="cls-2" d="M593.33,126V105H578.48V69.91L555.33,82.58v67.9c0,26.19,8.6,35,34.09,35h3.91V163.79h-.75c-12.65,0-14.1-1.38-14.1-13.47V126Z"/><polygon class="cls-2" points="323.06 68.53 278.21 185.4 302.87 185.4 347.73 68.53 323.06 68.53"/><polygon class="cls-2" points="367 68.53 322.15 185.4 346.81 185.4 391.66 68.53 367 68.53"/><path class="cls-2" d="M459.82,145.11c0-23.76-17.85-41.68-41.51-41.68a41.88,41.88,0,0,0-41.83,41.83,45.19,45.19,0,0,0,.92,9.05,42,42,0,0,0,3.39,9.92l.06.13c.48,1,1,1.92,1.52,2.81l.11.18a.22.22,0,0,0,0,.08l.16.28h0a39.81,39.81,0,0,0,3.79,5.17l.09.11c.7.8,1.45,1.59,2.23,2.36l.22.21c.84.8,1.64,1.51,2.43,2.16l.09.07c.85.69,1.75,1.36,2.67,2l.1.08c.84.56,1.74,1.12,2.76,1.7l.39.22c.92.51,1.88,1,2.83,1.42l.45.19c1.08.48,2.09.88,3.06,1.22l.15.05c1,.34,2.05.66,3.16.95l.4.11c1,.25,2.07.48,3.25.68l.62.1c1.13.18,2.26.32,3.36.42l.55,0c1.32.1,2.51.14,3.64.14.89,0,1.81,0,2.81-.08l.6,0,.31,0c.62,0,1.23-.1,1.82-.17l1.06-.13c.54-.07,1.07-.15,1.6-.24l.16,0,.91-.16,1.52-.32.34-.08.69-.16c.75-.19,1.48-.4,2.2-.63.38-.11.74-.24,1.1-.37l.56-.19.62-.23c.49-.18,1-.38,1.44-.58l.68-.29q.78-.35,1.53-.72l.38-.2A39.66,39.66,0,0,0,453.67,170l.48-.67-18.6-10.74-.4.5a20.12,20.12,0,0,1-3.6,3.49l-.75.53c-.4.26-.8.51-1.21.75l-.25.15c-.12.07-.24.15-.37.21a18.9,18.9,0,0,1-1.83.85l-.69.26c-.65.24-1.24.42-1.81.57l-.32.1a21.62,21.62,0,0,1-2.24.41l-.58.07a22,22,0,0,1-2.4.14v.75l-.13-.75q-1,0-1.86-.06l-.41,0-.53-.05c-.32,0-.64,0-.95-.09l-.54-.09-.48-.08-.77-.13-.6-.14-.51-.13-.57-.14-.65-.2-.41-.14-.52-.17c-.28-.1-.55-.22-.85-.35l-.21-.08-.42-.18-.85-.43-.12-.06-.41-.22c-.29-.16-.56-.34-.84-.51l-.13-.09a3.28,3.28,0,0,1-.31-.2c-.29-.19-.56-.4-.87-.64l-.32-.25c-.27-.22-.54-.45-.8-.69l-.29-.27c-.26-.26-.52-.52-.77-.79l-.23-.26c-.25-.29-.49-.59-.73-.89l-.17-.23c-.24-.33-.47-.66-.68-1l-.13-.2c-.22-.36-.44-.73-.64-1.12l-.66.35h0l.59-.49c-.21-.4-.41-.81-.59-1.22l0-.09c-.19-.45-.37-.91-.53-1.37l-.05-.14h60.7Zm-21.59-9.53H398.91c4-7.93,11.62-13,19.66-13S434.21,127.65,438.23,135.58Z"/><path class="cls-2" d="M528.21,154.14l-.37.68a19.78,19.78,0,1,1-.28-19.64l.37.65,19.43-11.22L547,124c-7.55-13-20.78-20.53-36.33-20.53a41.84,41.84,0,0,0,0,83.67c15.8,0,29.15-7.69,36.63-21.09l.36-.65Z"/><path class="cls-2" d="M237.2,103.43a41.83,41.83,0,1,0,41.67,41.83A41.81,41.81,0,0,0,237.2,103.43Zm20.17,41.83a20.17,20.17,0,1,1-20.17-20.17A20.2,20.2,0,0,1,257.37,145.26Z"/><path class="cls-2" d="M171.43,154.14l-.37.68a19.78,19.78,0,1,1-.28-19.64l.37.65,19.43-11.22-.37-.65c-7.55-13-20.79-20.53-36.33-20.53a41.84,41.84,0,0,0,0,83.67c15.8,0,29.15-7.69,36.63-21.09l.36-.65Z"/></svg>